<?xml version="1.0" encoding="utf-8"?>
<!-- Generator: Adobe Illustrator 19.2.1, SVG Export Plug-In . SVG Version: 6.00 Build 0)  -->
<svg version="1.1" xmlns="http://www.w3.org/2000/svg" xmlns:xlink="http://www.w3.org/1999/xlink" x="0px" y="0px"
	 viewBox="0 0 223.8 115.1" style="enable-background:new 0 0 223.8 115.1;" xml:space="preserve">
<style type="text/css">
	.st0{display:none;}
	.st1{display:inline;fill:#E6E7E8;stroke:#000000;stroke-linecap:round;stroke-miterlimit:10;}
	.st2{display:inline;fill:none;stroke:#000000;stroke-linecap:round;stroke-miterlimit:10;}
	.st3{fill:#5F9EA0;}
	.st4{fill:none;stroke:#000000;stroke-linecap:round;stroke-miterlimit:10;}
	.st5{fill:none;stroke:#000000;stroke-linecap:round;stroke-linejoin:round;stroke-miterlimit:10;}
	.st6{fill:none;stroke:#000000;stroke-width:0.8155;stroke-linecap:round;stroke-linejoin:round;stroke-miterlimit:10;}
	.st7{fill:none;stroke:#000000;stroke-width:0.8585;stroke-linecap:round;stroke-linejoin:round;stroke-miterlimit:10;}
	.st8{fill:#FFFFFF;stroke:#000000;stroke-linecap:round;stroke-miterlimit:10;}
	.st9{fill:#FFFFFF;stroke:#000000;stroke-miterlimit:10;}
	.st10{fill:#DEB887;}
	.st11{fill:#DEB887;stroke:#000000;stroke-linecap:round;stroke-linejoin:round;stroke-miterlimit:10;}
</style>
<g id="Layer_2" class="st0">
	<path class="st2" d="M-127.4-15.6c2,0.7,4,1.3,6.1,2c0.9,0.3,1.8,0.6,2.7,0.7c1.3,0.1,2.6-0.2,3.9-0.6c0.9-0.2,1.8-0.5,2.6-0.9
		c0.7-0.4,1.2-0.9,1.9-1.3c2.2-1.4,5.1-1.5,7.4-0.3c2.6,1.3,5.8,1.8,8.3,0.4c2.7-1.5,4.6-5,7.7-4.8c1.2,0.1,2.4,0.7,3.5,0.4
		c1.4-0.4,2-2.1,3.2-2.9c2.8-2,6.9,1.4,10.1,0c1.6-0.7,2.4-2.6,3.8-3.6c1.1-0.8,2.4-1.1,3.6-1.6c3.8-1.5,6.9-4.4,10.2-6.8
		c3.3-2.4,7.4-4.4,11.4-3.6c0.8,0.2,1.7,0.4,2.3,0c0.5-0.3,0.7-0.9,1.1-1.2c1.1-0.8,2.5,0.1,3.9,0.5c3.3,0.8,6.7-2.9,9.9-1.7
		c0.7,0.2,1.3,0.7,2,0.7c1.1,0.1,2-0.8,2.9-1.6c4.1-3.8,9.8-5.4,15.3-5.4c3.6,0,7.3,0.6,10.7,1.8c0.6,0.2,1.2,0.4,1.6,0.9
		c0.3,0.4,0.5,0.9,0.8,1.3C9.9-43,10.5-43,11.1-43c2,0,4-0.2,5.9,0.3s3.7,2.1,3.7,4.1c0,0.9-0.3,1.8,0.1,2.5
		c0.8,1.3,2.9,0.3,4.4,0.8c1,0.3,1.7,1.3,2.7,1.7c1.3,0.5,2.8-0.1,4.1-0.6c1.4-0.4,3.1-0.4,3.8,0.8c0.4,0.7,0.2,1.6,0.3,2.4
		c0.2,1.9,1.9,3.4,3.8,3.8c1.9,0.3,3.8-0.4,5.2-1.7c0.5-0.5,1-1.1,1.6-1.3c0.6-0.2,1.2-0.2,1.8-0.2c4.4-0.2,8.5-3.2,9.9-7.3
		c3.6-0.9,7.8-2.1,11.4-3c0.6-0.1,1.1-0.3,1.7-0.1c0.7,0.2,1.2,0.9,1.6,1.5c0.8,1.2,1.6,2.5,2.4,3.7c1.3,0,2.6,0.1,3.9,0.1
		c0.6,1,1,2.1,1.1,3.3c2.4-0.4,4,2.2,5.3,4.3c1.9,3,4.9,5.3,8.2,6.5c0.8,0.3,1.7,0.6,2.3,1.2c0.5,0.6,0.6,1.3,1,1.9
		c1.3,1.9,4.4,1.6,5.8,3.3c0.5,0.6,0.7,1.3,1.2,1.9c0.5,0.6,1.2,0.9,1.8,1.2c3.3,1.6,6.7,3.2,10,4.8c3.8,1.9,8.1,3.8,12.2,2.5
		c3.9-1.2,8.7-1.3,12.7-0.3c1.8,0.5,3.5,1.1,5.3,1.4c4.3,0.6,8.6-1.5,13-1.1c3.2,0.3,6.2,1.8,9.3,2.4c1.9,0.4,3.9,0.4,5.8,0.1
		c2.2-0.3,4.4-1.1,6.5-0.4c0.9,0.3,1.7,0.8,2.5,1.1c3.9,1.6,8.4,0.1,12.1-2.1c3.7-2.2,7-5,11.1-6.1c1.6-0.5,3.3-0.6,4.7-1.4
		c1-0.5,1.9-1.2,2.8-1.9c2.8-2,6.3-3.7,9.5-2.6c2.7,0.9,5.5,3.5,8,2.1"/>
	<path class="st2" d="M-43.5,9.5c8.3-8.1,23.7-3.7,32-11.7c3.1-3,4.6-7.3,7.7-10.2c0.3-0.3,0.6-0.5,1-0.6c1.2-0.2,2.3,1.6,3.3,1"/>
	<path class="st2" d="M37.6,4.5c2,0.5,4.1,1,6.1,1.6c0.5,0.1,1,0.2,1.4,0.1c0.5-0.2,0.8-0.6,1.2-1c1.8-2.1,4.2-3.8,6.9-4.8
		c2-0.8,4.8-1.1,6.9-0.5"/>
</g>
<g id="Layer_4">
	<g>
		<path class="st3" d="M0,115.1h223.8V46.8h-29l-33.5-33.5c-1-1-2.6-1-3.5,0l-24.4,24.4c-1.3,1.3-3.6,1.3-4.9,0L113,22.3
			c-1-1-2.6-1-3.5,0l-6.6,6.6c-1.3,1.3-3.6,1.3-4.9,0L74.2,5.2c-0.9-0.9-2.6-0.9-3.5,0L29,46.8l-29,0V115.1z"/>
	</g>
</g>
<g id="Layer_3">
	<g>
		<path class="st10" d="M28.6,47c-0.1,0-0.3,0-0.4-0.1c-0.2-0.2-0.2-0.5,0-0.7L69.9,4.5c1.3-1.3,3.6-1.3,5,0l23.7,23.7
			c0.9,0.9,2.6,0.9,3.5,0l6.6-6.6c1.4-1.4,3.6-1.4,4.9,0L129.1,37c0.9,0.9,2.6,0.9,3.5,0l24.4-24.4c1.4-1.4,3.6-1.4,5,0l33.5,33.5
			c0.2,0.2,0.2,0.5,0,0.7s-0.5,0.2-0.7,0l-33.5-33.5c-1-1-2.6-1-3.5,0l-24.4,24.4c-1.3,1.3-3.6,1.3-4.9,0L113,22.3c-1-1-2.6-1-3.5,0
			l-6.6,6.6c-1.3,1.3-3.6,1.3-4.9,0L74.2,5.2c-0.9-0.9-2.6-0.9-3.5,0L29,46.8C28.9,46.9,28.8,47,28.6,47z"/>
	</g>
	<g>
		<circle class="st10" cx="41.6" cy="51.9" r="0.5"/>
	</g>
	<g>
		<circle class="st10" cx="47.6" cy="51.9" r="0.5"/>
	</g>
	<g>
		<circle class="st10" cx="50.6" cy="51.9" r="0.5"/>
	</g>
	<g>
		<circle class="st10" cx="86.6" cy="51.9" r="0.5"/>
	</g>
	<g>
		<circle class="st10" cx="81.7" cy="51.9" r="0.5"/>
	</g>
	<g>
		<circle class="st10" cx="89.6" cy="51.9" r="0.5"/>
	</g>
	<g>
		<circle class="st10" cx="95.6" cy="51.9" r="0.5"/>
	</g>
	<g>
		<circle class="st10" cx="107.6" cy="51.9" r="0.5"/>
	</g>
	<g>
		<circle class="st10" cx="110.6" cy="51.9" r="0.5"/>
	</g>
	<g>
		<circle class="st10" cx="116.6" cy="51.9" r="0.5"/>
	</g>
	<g>
		<circle class="st10" cx="119.6" cy="51.9" r="0.5"/>
	</g>
	<g>
		<circle class="st10" cx="122.6" cy="51.9" r="0.5"/>
	</g>
	<g>
		<circle class="st10" cx="132.1" cy="51.9" r="0.5"/>
	</g>
	<g>
		<circle class="st10" cx="140.6" cy="51.9" r="0.5"/>
	</g>
	<g>
		<circle class="st10" cx="153.5" cy="56" r="0.5"/>
	</g>
	<g>
		<circle class="st10" cx="143.6" cy="51.9" r="0.5"/>
	</g>
	<g>
		<circle class="st10" cx="146.6" cy="51.9" r="0.5"/>
	</g>
	<g>
		<circle class="st10" cx="149.6" cy="51.9" r="0.5"/>
	</g>
	<g>
		<circle class="st10" cx="155.6" cy="51.9" r="0.5"/>
	</g>
	<g>
		<circle class="st10" cx="164.6" cy="51.9" r="0.5"/>
	</g>
	<g>
		<circle class="st10" cx="170.6" cy="51.9" r="0.5"/>
	</g>
	<g>
		<circle class="st10" cx="173.6" cy="51.9" r="0.5"/>
	</g>
	<g>
		<circle class="st10" cx="176.6" cy="51.9" r="0.5"/>
	</g>
	<g>
		<circle class="st10" cx="182.6" cy="51.9" r="0.5"/>
	</g>
	<g>
		<circle class="st10" cx="185.6" cy="51.9" r="0.5"/>
	</g>
	<g>
		<circle class="st10" cx="117.1" cy="69.7" r="0.5"/>
	</g>
	<g>
		<circle class="st10" cx="160" cy="94.4" r="0.5"/>
	</g>
	<g>
		<circle class="st10" cx="184.6" cy="107.1" r="0.5"/>
	</g>
	<g>
		<circle class="st10" cx="141.8" cy="73.4" r="0.5"/>
	</g>
	<g>
		<circle class="st10" cx="177.6" cy="86.3" r="0.5"/>
	</g>
	<g>
		<circle class="st10" cx="161.6" cy="55" r="0.5"/>
	</g>
	<g>
		<circle class="st10" cx="93.1" cy="56.7" r="0.5"/>
	</g>
	<g>
		<circle class="st10" cx="122.6" cy="59.5" r="0.5"/>
	</g>
	<g>
		<circle class="st10" cx="174.6" cy="64.3" r="0.5"/>
	</g>
	<g>
		<circle class="st10" cx="180.8" cy="56.7" r="0.5"/>
	</g>
	<g>
		<circle class="st10" cx="58.6" cy="58.5" r="0.5"/>
	</g>
	<g>
		<circle class="st10" cx="113.9" cy="59" r="0.5"/>
	</g>
	<g>
		<circle class="st10" cx="132.1" cy="63.5" r="0.5"/>
	</g>
	<g>
		<circle class="st10" cx="155.6" cy="63" r="0.5"/>
	</g>
	<g>
		<circle class="st10" cx="192.4" cy="78.5" r="0.5"/>
	</g>
	<g>
		<ellipse transform="matrix(0.5 -0.866 0.866 0.5 30.3452 193.9485)" class="st10" cx="183.1" cy="70.7" rx="0.5" ry="0.5"/>
	</g>
	<g>
		<circle class="st10" cx="169.1" cy="58.5" r="0.5"/>
	</g>
	<g>
		<circle class="st10" cx="92.1" cy="73.4" r="0.5"/>
	</g>
	<g>
		<circle class="st10" cx="87.1" cy="85.3" r="0.5"/>
	</g>
	<g>
		<circle class="st10" cx="105.8" cy="80.8" r="0.5"/>
	</g>
	<g>
		<circle class="st10" cx="81.2" cy="100.6" r="0.5"/>
	</g>
	<g>
		<circle class="st10" cx="129.5" cy="85.8" r="0.5"/>
	</g>
	<g>
		<circle class="st10" cx="44.4" cy="76" r="0.5"/>
	</g>
	<g>
		<circle class="st10" cx="51.1" cy="91" r="0.5"/>
	</g>
	<g>
		<circle class="st10" cx="49.1" cy="59" r="0.5"/>
	</g>
	<g>
		<circle class="st10" cx="33.9" cy="66" r="0.5"/>
	</g>
	<g>
		<circle class="st10" cx="37.6" cy="55" r="0.5"/>
	</g>
	<g>
		<circle class="st10" cx="79.6" cy="56.2" r="0.5"/>
	</g>
	<g>
		<circle class="st10" cx="103.2" cy="55.5" r="0.5"/>
	</g>
	<g>
		<circle class="st10" cx="53" cy="54.5" r="0.5"/>
	</g>
	<g>
		<circle class="st10" cx="126.6" cy="55.5" r="0.5"/>
	</g>
	<g>
		<circle class="st10" cx="188.1" cy="61.4" r="0.5"/>
	</g>
	<g>
		<circle class="st10" cx="85.3" cy="63" r="0.5"/>
	</g>
	<g>
		<circle class="st10" cx="54.6" cy="68.2" r="0.5"/>
	</g>
	<g>
		<circle class="st10" cx="37.6" cy="105.3" r="0.5"/>
	</g>
	<g>
		<circle class="st10" cx="65.1" cy="61.7" r="0.5"/>
	</g>
	<g>
		<circle class="st10" cx="100.5" cy="63.5" r="0.5"/>
	</g>
	<g>
		<circle class="st10" cx="41.6" cy="63.5" r="0.5"/>
	</g>
	<g>
		<circle class="st10" cx="31.6" cy="79.1" r="0.5"/>
	</g>
	<g>
		<circle class="st10" cx="116.6" cy="107.1" r="0.5"/>
	</g>
	<g>
		<circle class="st10" cx="136.6" cy="54.5" r="0.5"/>
	</g>
	<g>
		<g>
			<path class="st10" d="M162.5,78.5c-0.3,0-0.5-0.2-0.5-0.5v-4.1c0,0,0-2.3-0.5-3.6c-0.1-0.3,0-0.5,0.3-0.6c0.3-0.1,0.5,0,0.6,0.3
				c0.5,1.5,0.5,3.9,0.5,4V78C163,78.2,162.8,78.5,162.5,78.5z"/>
		</g>
		<g>
			<path class="st10" d="M164.7,78.5c-0.3,0-0.5-0.2-0.5-0.5v-4.6c0,0-0.1-4.2-0.9-6.7c-0.1-0.3,0.1-0.5,0.3-0.6
				c0.3-0.1,0.5,0.1,0.6,0.3c0.8,2.6,1,6.8,1,7V78C165.2,78.2,165,78.5,164.7,78.5z"/>
		</g>
		<g>
			<path class="st10" d="M166.9,78.5c-0.3,0-0.5-0.2-0.5-0.5v-5.7c0-0.1-0.1-5.5-1.2-9.7c-0.1-0.3,0.1-0.5,0.3-0.6
				c0.3-0.1,0.5,0.1,0.6,0.3c1.2,4.3,1.3,9.7,1.3,9.9V78C167.4,78.2,167.2,78.5,166.9,78.5z"/>
		</g>
		<g>
			<path class="st10" d="M169.1,78.5c-0.3,0-0.5-0.2-0.5-0.5v-4.6c0-0.2,0-4.1,1.2-7.5c0.1-0.3,0.4-0.4,0.6-0.3
				c0.3,0.1,0.4,0.4,0.3,0.6c-1.2,3.3-1.2,7.2-1.2,7.2V78C169.6,78.2,169.4,78.5,169.1,78.5z"/>
		</g>
		<g>
			<path class="st10" d="M171.3,78.5c-0.3,0-0.5-0.2-0.5-0.5v-3.5c0-0.1,0.1-2.2,0.8-4.5c0.1-0.3,0.4-0.4,0.6-0.3
				c0.3,0.1,0.4,0.4,0.3,0.6c-0.7,2.1-0.7,4.1-0.7,4.2V78C171.8,78.2,171.6,78.5,171.3,78.5z"/>
		</g>
	</g>
	<g>
		<g>
			<path class="st10" d="M139.7,66.8c-0.2,0-0.4-0.2-0.4-0.4V63c0,0,0-1.9-0.4-3c-0.1-0.2,0-0.4,0.3-0.5c0.2-0.1,0.4,0,0.5,0.3
				c0.4,1.2,0.4,3.1,0.4,3.2v3.4C140.1,66.6,140,66.8,139.7,66.8z"/>
		</g>
		<g>
			<path class="st10" d="M141.5,66.8c-0.2,0-0.4-0.2-0.4-0.4v-3.8c0,0-0.1-3.4-0.8-5.4c-0.1-0.2,0-0.4,0.3-0.5
				c0.2-0.1,0.4,0,0.5,0.3c0.7,2.1,0.8,5.5,0.8,5.7l0,3.8C141.9,66.6,141.8,66.8,141.5,66.8z"/>
		</g>
		<g>
			<path class="st10" d="M143.3,66.8c-0.2,0-0.4-0.2-0.4-0.4v-4.7c0,0,0-4.5-1-7.9c-0.1-0.2,0.1-0.4,0.3-0.5
				c0.2-0.1,0.4,0.1,0.5,0.3c1,3.5,1,7.9,1,8.1v4.7C143.7,66.6,143.6,66.8,143.3,66.8z"/>
		</g>
		<g>
			<path class="st10" d="M145.1,66.8c-0.2,0-0.4-0.2-0.4-0.4v-3.8c0-0.1,0-3.3,1-6.1c0.1-0.2,0.3-0.3,0.5-0.2
				c0.2,0.1,0.3,0.3,0.2,0.5c-1,2.7-1,5.8-1,5.9v3.8C145.5,66.6,145.4,66.8,145.1,66.8z"/>
		</g>
		<g>
			<path class="st10" d="M146.9,66.8c-0.2,0-0.4-0.2-0.4-0.4v-2.8c0-0.1,0-1.8,0.6-3.6c0.1-0.2,0.3-0.3,0.5-0.3
				c0.2,0.1,0.3,0.3,0.3,0.5c-0.5,1.7-0.6,3.4-0.6,3.4l0,2.8C147.3,66.6,147.2,66.8,146.9,66.8z"/>
		</g>
	</g>
	<g>
		<g>
			<path class="st10" d="M81.4,80.7H63.3c-0.3,0-0.5-0.2-0.5-0.5s0.2-0.5,0.5-0.5h18.1c0.3,0,0.5,0.2,0.5,0.5S81.7,80.7,81.4,80.7z"
				/>
		</g>
		<g>
			<g>
				<path class="st10" d="M75.6,80.7h-7v-25h-7.1c-1.9,0-3.5-1.6-3.5-3.5l0-14.1c0.2-1.7,1.7-3.1,3.5-3.1s3.3,1.4,3.5,3.1h0l0,0.2
					c0,0.1,0,0.1,0,0.2v10.2h3.6V22.9c0-1.9,1.6-3.5,3.5-3.5s3.5,1.6,3.5,3.5v19.8h3.6l0-10.6c0.2-1.7,1.7-3.1,3.5-3.1
					s3.3,1.4,3.5,3.1h0l0,0.2c0,0.1,0,0.1,0,0.2v13.7c0,1.9-1.6,3.5-3.5,3.5h-7.1V80.7z M69.6,79.7h5v-31h8.1c1.4,0,2.5-1.1,2.5-2.5
					V32.5c0-1.4-1.1-2.5-2.5-2.5c-1.4,0-2.5,1.1-2.5,2.5l0,0.5l0,0v10.6h-5.6V22.9c0-1.4-1.1-2.5-2.5-2.5s-2.5,1.1-2.5,2.5v26.8
					h-5.6l0-11.2c0-1.3-1.1-2.5-2.5-2.5s-2.5,1.1-2.5,2.5l0,0.5l0,0v13.1c0,1.4,1.1,2.5,2.5,2.5h8.1V79.7z"/>
			</g>
		</g>
	</g>
	<g>
		<path class="st10" d="M28.6,47c-0.1,0-0.3,0-0.4-0.1c-0.2-0.2-0.2-0.5,0-0.7L69.9,4.5c1.3-1.3,3.6-1.3,5,0l23.7,23.7
			c0.9,0.9,2.6,0.9,3.5,0l6.6-6.6c1.4-1.4,3.6-1.4,4.9,0L129.1,37c0.9,0.9,2.6,0.9,3.5,0l24.4-24.4c1.4-1.4,3.6-1.4,5,0l33.5,33.5
			c0.2,0.2,0.2,0.5,0,0.7s-0.5,0.2-0.7,0l-33.5-33.5c-1-1-2.6-1-3.5,0l-24.4,24.4c-1.3,1.3-3.6,1.3-4.9,0L113,22.3c-1-1-2.6-1-3.5,0
			l-6.6,6.6c-1.3,1.3-3.6,1.3-4.9,0L74.2,5.2c-0.9-0.9-2.6-0.9-3.5,0L29,46.8C28.9,46.9,28.8,47,28.6,47z"/>
	</g>
</g>
</svg>
